#N canvas 866 308 450 300 10;
#X obj 134 152 dac~;
#X obj 126 120 *~ 0.5;
#X obj 179 119 *~ 0.5;
#X obj 109 241 print;
#X obj 109 184 loadbang;
#X obj 218 205 del 500;
#X msg 208 241 \; pd dsp 1;
#X obj 118 16 adc~;
#X msg 102 212 mictest;
#X obj 118 39 delwrite~ mydel 2000;
#X obj 126 70 delread~ mydel 2000;
#X obj 179 93 delread~ mydel 1800;
#X connect 1 0 0 0;
#X connect 2 0 0 1;
#X connect 4 0 8 0;
#X connect 4 0 5 0;
#X connect 5 0 6 0;
#X connect 7 0 9 0;
#X connect 8 0 3 0;
#X connect 10 0 1 0;
#X connect 11 0 2 0;
