#N canvas 644 277 450 300 10;
#X obj 134 152 dac~;
#X obj 125 93 osc~ 400;
#X obj 191 88 osc~ 404;
#X obj 126 120 *~ 0.5;
#X obj 179 119 *~ 0.5;
#X obj 109 241 print;
#X obj 109 184 loadbang;
#X obj 218 205 del 500;
#X msg 208 241 \; pd dsp 1;
#X msg 102 212 sinetest;
#X connect 1 0 3 0;
#X connect 2 0 4 0;
#X connect 3 0 0 0;
#X connect 4 0 0 1;
#X connect 6 0 9 0;
#X connect 6 0 7 0;
#X connect 7 0 8 0;
#X connect 9 0 5 0;
